# File created by Blade
# Date/Time:  Tue Jan 27 18:01:49 2015
# Frame Rate: 120.000 fps
#------------------------------------------------------
:FULLY-SPECIFIED
:DEGREES
2995
root -1.829634 31.973070 -6.253174 7.902417 18.769198 3.487839
Spine -5.320404 -18.112624 -6.777943
Head -2.913883 -44.733881 -4.575764
LeftShoulder -12.113396 15.517739 7.814048
LeftArm 19.395786 42.291097 -74.228972
LeftForeArm -7.198208 -0.000000 12.849542
LeftHand -12.068901 -0.000000 -3.122904
LeftHandThumb1 -26.253704 0.000000 33.147579
RightShoulder -18.271099 24.772579 -50.481580
RightArm 128.682804 76.917086 156.797316
RightForeArm 37.754006 -0.000000 80.108735
RightHand -5.515803 -0.000000 -4.314113
RightHandThumb1 -24.326973 -0.000000 -32.862282
LeftUpLeg -3.695935 -6.354197 0.969173
LeftLeg -0.822619 -0.000000 0.000000
LeftFoot -12.730724 12.032866 -24.169043
LeftToeBase 8.555335 -0.000000 -0.000000
RightUpLeg 1.513370 -10.195626 -1.660748
RightLeg -3.290718 -0.000000 0.000000
RightFoot -16.515763 -19.090012 11.769770
RightToeBase 5.342805 -0.000000 -0.000000
2996
root -1.820766 31.971512 -6.243646 7.821463 18.630304 3.481203
Spine -5.362278 -18.018946 -6.780842
Head -2.563559 -43.507300 -5.033875
LeftShoulder -12.115363 15.477924 7.809107
LeftArm 19.455885 42.324618 -74.175029
LeftForeArm -7.063810 -0.000000 12.779687
LeftHand -12.088132 -0.000000 -3.211693
LeftHandThumb1 -26.253704 0.000000 33.147579
RightShoulder -18.190879 24.813922 -50.320666
RightArm 127.272719 77.212919 155.500010
RightForeArm 37.681166 -0.000000 79.878917
RightHand -5.682281 0.000000 -4.255764
RightHandThumb1 -24.326973 -0.000000 -32.862282
LeftUpLeg -3.610127 -6.319289 0.935936
LeftLeg -0.749507 -0.000000 0.000000
LeftFoot -12.852886 12.107250 -24.174444
LeftToeBase 8.629897 -0.000000 -0.000000
RightUpLeg 1.582096 -10.106860 -1.697937
RightLeg -3.261646 -0.000000 0.000000
RightFoot -16.534469 -19.042416 11.753760
RightToeBase 5.450673 -0.000000 -0.000000
2997
root -1.814174 31.970702 -6.235639 7.745441 18.495432 3.470585
Spine -5.418726 -17.905038 -6.787067
Head -2.212030 -42.279731 -5.449982
LeftShoulder -12.094702 15.435960 7.817057
LeftArm 19.540026 42.355019 -74.113638
LeftForeArm -6.948588 -0.000000 12.682130
LeftHand -12.044167 -0.000000 -3.364277
LeftHandThumb1 -26.253704 0.000000 33.147579
RightShoulder -18.047883 24.819135 -50.100238
RightArm 125.647253 77.573896 153.883914
RightForeArm 37.594239 -0.000000 79.673385
RightHand -5.841388 0.000000 -4.378447
RightHandThumb1 -24.326973 -0.000000 -32.862282
LeftUpLeg -3.558966 -6.253774 0.914595
LeftLeg -0.624851 -0.000000 0.000000
LeftFoot -12.975186 12.130866 -24.181721
LeftToeBase 8.574195 -0.000000 -0.000000
RightUpLeg 1.636023 -10.023273 -1.727398
RightLeg -3.221547 -0.000000 0.000000
RightFoot -16.559422 -18.952178 11.856160
RightToeBase 5.274421 -0.000000 -0.000000
2998
root -1.805688 31.969995 -6.229299 7.677583 18.362714 3.472267
Spine -5.454351 -17.783844 -6.793874
Head -1.944180 -40.961397 -5.771614
LeftShoulder -12.113208 15.406988 7.798040
LeftArm 19.680796 42.364345 -74.001033
LeftForeArm -6.773076 -0.000000 12.634069
LeftHand -11.998215 -0.000000 -3.512202
LeftHandThumb1 -26.253704 0.000000 33.147579
RightShoulder -17.950661 24.793639 -49.895844
RightArm 123.672602 77.916246 151.880134
RightForeArm 37.554760 -0.000000 79.473518
RightHand -5.999996 -0.000000 -4.501323
RightHandThumb1 -24.326973 -0.000000 -32.862282
LeftUpLeg -3.491331 -6.270583 0.881265
LeftLeg -0.554742 -0.000000 0.000000
LeftFoot -13.092572 12.241114 -24.211419
LeftToeBase 8.588541 -0.000000 -0.000000
RightUpLeg 1.678128 -9.983241 -1.767689
RightLeg -3.172926 -0.000000 0.000000
RightFoot -16.562795 -18.882652 11.812746
RightToeBase 5.215662 -0.000000 -0.000000
2999
root -1.796625 31.968958 -6.221023 7.592799 18.223600 3.464040
Spine -5.474954 -17.672381 -6.791350
Head -1.721881 -39.557480 -6.020829
LeftShoulder -12.153164 15.422851 7.769315
LeftArm 19.893268 42.404920 -73.850713
LeftForeArm -6.624914 -0.000000 12.575967
LeftHand -11.872765 0.000000 -3.604382
LeftHandThumb1 -26.253704 0.000000 33.147579
RightShoulder -17.818892 24.825515 -49.715983
RightArm 121.349028 78.360388 149.515515
RightForeArm 37.431974 0.000000 79.295371
RightHand -6.105276 -0.000000 -4.432852
RightHandThumb1 -24.326973 -0.000000 -32.862282
LeftUpLeg -3.402732 -6.249404 0.855241
LeftLeg -0.479596 -0.000000 0.000000
LeftFoot -13.216648 12.301109 -24.241440
LeftToeBase 8.568816 -0.000000 -0.000000
RightUpLeg 1.743576 -9.925593 -1.801783
RightLeg -3.136740 -0.000000 0.000000
RightFoot -16.563901 -18.837892 11.702137
RightToeBase 5.313859 -0.000000 -0.000000
3000
root -1.786173 31.967729 -6.214042 7.516848 18.091828 3.479960
Spine -5.500522 -17.513800 -6.808677
Head -1.483772 -38.113380 -6.254297
LeftShoulder -12.186233 15.302965 7.774623
LeftArm 19.985940 42.500696 -73.783560
LeftForeArm -6.347054 -0.000000 12.515392
LeftHand -11.932506 0.000000 -3.759159
LeftHandThumb1 -26.253704 0.000000 33.147579
RightShoulder -17.700701 24.767269 -49.557377
RightArm 118.918070 78.758517 147.022344
RightForeArm 37.256570 -0.000000 79.128307
RightHand -6.122307 -0.000000 -4.413714
RightHandThumb1 -24.326973 -0.000000 -32.862282
LeftUpLeg -3.327751 -6.243774 0.803484
LeftLeg -0.387795 -0.000000 0.000000
LeftFoot -13.348753 12.374742 -24.292889
LeftToeBase 8.593679 -0.000000 -0.000000
RightUpLeg 1.809893 -9.868138 -1.859368
RightLeg -3.105065 -0.000000 0.000000
RightFoot -16.588075 -18.782000 11.689126
RightToeBase 5.416773 -0.000000 -0.000000
3001
root -1.774290 31.966922 -6.207300 7.439361 17.965497 3.480228
Spine -5.537855 -17.351126 -6.786047
Head -1.260901 -36.653762 -6.476378
LeftShoulder -12.207254 15.272151 7.732081
LeftArm 20.182336 42.559751 -73.627208
LeftForeArm -6.140595 -0.000000 12.488551
LeftHand -11.749524 -0.000000 -3.820777
LeftHandThumb1 -26.253704 0.000000 33.147579
RightShoulder -17.556430 24.636189 -49.392435
RightArm 116.243948 79.127928 144.255334
RightForeArm 37.103701 -0.000000 79.010838
RightHand -6.108230 -0.000000 -4.516223
RightHandThumb1 -24.326973 -0.000000 -32.862282
LeftUpLeg -3.250807 -6.261488 0.766660
LeftLeg -0.307022 -0.000000 0.000000
LeftFoot -13.497647 12.456693 -24.348843
LeftToeBase 8.665416 -0.000000 -0.000000
RightUpLeg 1.871689 -9.835634 -1.907319
RightLeg -3.070367 -0.000000 0.000000
RightFoot -16.581357 -18.703622 11.655712
RightToeBase 5.241251 -0.000000 -0.000000
3002
root -1.762273 31.967585 -6.202253 7.374285 17.845099 3.523872
Spine -5.552615 -17.222389 -6.820860
Head -1.064778 -35.169852 -6.623579
LeftShoulder -12.226389 15.303552 7.682842
LeftArm 20.405885 42.524259 -73.465426
LeftForeArm -5.809048 -0.000000 12.513439
LeftHand -11.846001 0.000000 -3.891098
LeftHandThumb1 -26.253704 0.000000 33.147579
RightShoulder -17.460992 24.573683 -49.238259
RightArm 113.153626 79.415500 141.083216
RightForeArm 36.876170 0.000000 78.932878
RightHand -6.225146 -0.000000 -4.477590
RightHandThumb1 -24.326973 -0.000000 -32.862282
LeftUpLeg -3.173240 -6.292180 0.686213
LeftLeg -0.235328 -0.000000 0.000000
LeftFoot -13.590405 12.562278 -24.391123
LeftToeBase 8.696545 -0.000000 -0.000000
RightUpLeg 1.938131 -9.797262 -1.997212
RightLeg -3.047569 -0.000000 0.000000
RightFoot -16.598994 -18.613421 11.657434
RightToeBase 5.253412 -0.000000 -0.000000
3003
root -1.751715 31.967165 -6.197988 7.309188 17.747263 3.537110
Spine -5.573006 -17.088727 -6.803274
Head -0.900765 -33.643241 -6.762151
LeftShoulder -12.214344 15.252713 7.644621
LeftArm 20.495891 42.493181 -73.394193
LeftForeArm -5.578675 -0.000000 12.598342
LeftHand -11.968940 -0.000000 -3.889822
LeftHandThumb1 -26.253704 0.000000 33.147579
RightShoulder -17.341191 24.427691 -49.121561
RightArm 110.323373 79.664728 138.171556
RightForeArm 36.653196 -0.000000 78.858520
RightHand -6.296341 -0.000000 -4.462204
RightHandThumb1 -24.326973 -0.000000 -32.862282
LeftUpLeg -3.113569 -6.272927 0.639876
LeftLeg -0.159656 -0.000000 0.000000
LeftFoot -13.669230 12.607646 -24.403060
LeftToeBase 8.664440 -0.000000 -0.000000
RightUpLeg 1.987372 -9.793536 -2.049201
RightLeg -3.005484 -0.000000 0.000000
RightFoot -16.610674 -18.532300 11.630248
RightToeBase 5.297638 -0.000000 -0.000000
